<svg id="Layer_1" data-name="Layer 1" xmlns="http://www.w3.org/2000/svg" viewBox="0 0 181.17 120.98"><defs><style>.cls-1{fill:#b32c39;}.cls-2{fill:#f15a22;}</style></defs><title>logo</title><path class="cls-1" d="M280.42,366.35c0,6.48-.05,13,0,19.45,0,1.81-.4,2.63-2.4,2.51-2.81-.17-5.64-.12-8.47,0-1.42,0-2.06-.33-2.06-1.89q.08-20.25,0-40.51c0-1.51.54-2,2-2,2.51.07,5-.05,7.55,0,3.26,0,3.28,0,3.28,3.25Q280.43,356.74,280.42,366.35Z" transform="translate(-99.29 -289.24)"/><path class="cls-1" d="M241.44,318.93a52.69,52.69,0,0,1,8.71,2.72c3.09,1.42,4.75,3.76,4.66,7.18a8.57,8.57,0,0,1-5.6,7.63c-5.65,1.81-11.24,2-16.45-1.37a6.09,6.09,0,0,1-2.84-5c-.09-1.58.47-2.76,2-3.21a2.89,2.89,0,0,1,3.72,1.39,7.29,7.29,0,0,0,7.64,4.26,5.72,5.72,0,0,0,3-1.07,2.43,2.43,0,0,0,.14-4.19,10,10,0,0,0-4.19-1.75,38.62,38.62,0,0,1-7-2.21c-6-2.74-6.85-9.11-1.75-13.16,4-3.14,15.29-2.63,18.23,1.12,1.62,2.06,2.27,3.85,1.16,5.26s-3.16,1.55-5.48.08a2.46,2.46,0,0,0-1.81-1.83l-.5-.46c-1.55-2.2-3.76-1.47-5.75-1.13a2.59,2.59,0,0,0-2.26,2.52c0,1.33.95,2,2,2.44C239.84,318.53,240.65,318.7,241.44,318.93Z" transform="translate(-99.29 -289.24)"/><path class="cls-1" d="M264.48,323.52c0-2.52,0-5,0-7.55,0-1-.23-1.69-1.5-1.77-1.61-.09-2.39-1.15-2.45-2.75a2.31,2.31,0,0,1,2.3-2.59c1.29-.14,1.58-.73,1.58-1.92,0-1.75.17-3.5.33-5.25a3.32,3.32,0,0,1,3.65-3.26,3.51,3.51,0,0,1,3.42,3.53c.05,1.52.11,3.06,0,4.58-.1,1.67.52,2.32,2.23,2.28s3.32,0,3.56,2.26-1.38,3.09-3.09,3.05c-2.58-.06-2.77,1.24-2.69,3.25.15,3.88-.11,7.77.17,11.67.16,2.18,1.14,3,3.22,2.68.15,0,.31,0,.46,0,1.93-.44,3.79-.58,4.29,1.95.36,1.81-1.19,3.38-3.78,3.72-2.93.38-5.91.88-8.66-.83-2.11-1.32-2.73-3.42-2.84-5.69-.12-2.43,0-4.88,0-7.32Z" transform="translate(-99.29 -289.24)"/><path class="cls-2" d="M137,291.26c2,.06,4,.17,5.93.15a5.53,5.53,0,0,1,4.2,1.44c1.19,1.24,2,.75,3.09,0,3.32-2.47,6.89-4.18,11.22-3.35a8.83,8.83,0,0,1,6.05,4.37,18.47,18.47,0,0,1,.72,6.32q0,19.75,0,39.51a3.74,3.74,0,0,0,1.4,3.42c2.68,1.9,4.82,4.38,7.21,6.6h0c0,1,.81,1.62,1.38,2.26a24.63,24.63,0,0,1,4.3,8A35.74,35.74,0,0,1,184,379.8c-.88,2.66-1.69,5.38-3.58,7.55a12.31,12.31,0,0,1-13.34,3.39c-5.17-1.67-7.37-5.18-8-10.82-.39-3.48-.27-7-.44-10.51-.07-1.39-.38-2.73-1.91-3.33h0c-3.85-1.28-6.1.06-6.33,4.2-.27,4.95-.16,9.92-.19,14.87,0,3.06,0,3.06-3,3.07-2.59,0-5.2-.12-7.78.07-1.78.13-2.05-.63-2-2.11q0-8-.07-16c0-3-1.26-4.47-3.62-4.56-2.94-.12-4.51,1.18-4.79,4.28-.46,5-.17,10.07-.19,15.1,0,3.29,0,3.3-3.3,3.3-2.52,0-5-.08-7.55,0-1.48,0-2-.66-2-2.06,0-9.23.07-18.47,0-27.7,0-1.6.63-2.13,2.19-2.08,2.36.09,4.73.06,7.09,0,1.56-.06,2.54.29,2.38,2.11,0,.49-.09,1.21.51,1.37s1-.37,1.33-.76c4.6-4.86,14-4.91,17.83.58.8,1.16,1.57.93,2.34,0a12.91,12.91,0,0,1,5.23-3.58c5.71-.62,11.31-.9,15.16,4.61a32.77,32.77,0,0,1,1.79,13.45,25.49,25.49,0,0,0,.06,4.12c.21,1.74.47,3.67,2.7,4a4.47,4.47,0,0,0,4.79-2.77,17.66,17.66,0,0,0,.84-12.93c-2.54-9.17-9-14.94-17.29-18.91-1.51-.73-2.17-1.45-2.22-3.18-.42-14.5,0-29-.21-43.49,0-1.45.59-3.29-1.14-4.13s-2.87.53-4.09,1.39a30.2,30.2,0,0,0-9,10.7c-1.48.94-1.88,2.46-2,4.1-2.36-3.27-1.6-6.75-1.35-10.3.3-4.25-2.34-6.9-6.26-4.21-.77.53-1.58.19-2.41.11-2.06-.2-4.22-1-6.1.66a1,1,0,0,1-1.44-.18c-1.26-1.16-3.06-.55-4.45-1.51-.79-.55-1.53.34-1.85,1.19a21.19,21.19,0,0,0-1,8.63,110.54,110.54,0,0,1,0,16.37c-.21,2.26,2.2,6,4.43,6.72a4.21,4.21,0,0,1,2.77,2.49c1.16,2.84.87,5.78.92,8.72,0,1-.18,2.48-1,2.56-1.73.18-2.94,1.31-4.48,1.77-2,.6-3.69,1.93-5.75,2.47a2.32,2.32,0,0,0-1.48,1.65c-.28,1.1-1.12,1.43-2,2-2.23,1.3-4.44,2.76-4.46,5.81-2.75,4.35-5,8.84-5,14.2A23.59,23.59,0,0,0,110,388.57c8.84,9.47,20.23,12.88,32.82,12.86a42.83,42.83,0,0,0,21.85-5.66,7.21,7.21,0,0,1,4.8-1,18.15,18.15,0,0,0,6.55-.21,5.36,5.36,0,0,1-1.82,2.81c-9.35,9.08-20.56,13.25-33.56,12.83-13.88-.45-25.51-5.66-34.1-16.68a34.86,34.86,0,0,1,.57-43.38,46.77,46.77,0,0,1,12.92-10.7c2.3-1.36,2.36-1.78.07-2.87-5-2.37-6.89-6.57-7-11.66-.16-9-.1-18,0-27,.06-4.67,1.94-6.34,6.7-6.43C125.6,291.37,131.32,291.33,137,291.26Z" transform="translate(-99.29 -289.24)"/><path class="cls-2" d="M119.34,307.38a21.19,21.19,0,0,1,1-8.63c.32-.86,1.06-1.74,1.85-1.19,1.38,1,3.19.35,4.45,1.51a1,1,0,0,0,1.44.18c1.87-1.63,4-.86,6.1-.66.83.08,1.64.42,2.41-.11,3.92-2.69,6.57,0,6.26,4.21-.25,3.55-1,7,1.35,10.3.12-1.64.52-3.16,2-4.1a29.64,29.64,0,0,0-1.57,11.21c.28,5.28,2.95,9.42,6.26,13.15,2.56,2.89,2.16,6.18,2.13,9.5,0,1.15-1,1.11-1.67,1a55.66,55.66,0,0,0-14.8-.53c-1.1.1-1.52-.42-1.49-1.47.07-2.44,0-4.89.22-7.31a5.44,5.44,0,0,1,3.4-4.56c2.94-1.25,3.7-3.54,3.66-6.41-.1-7.47-.22-14.94-.22-22.41,0-1.55-.54-2-2-1.93s-3.09-.25-3.1,2c0,3,0,5.95,0,8.92,0,2.29,0,4.58,0,6.86,0,1,.66,2.45-1.33,2.51s-1.41-1.39-1.43-2.4c-.06-5.26-.13-10.52,0-15.79,0-1.78-.74-2.3-2.29-2.23s-2.93-.11-2.91,2.14c.05,5.34,0,10.67-.08,16,0,1,.49,2.46-1.49,2.34S126,318,126,316.93c0-5,0-9.91,0-14.87,0-2.63-2-3.86-4.42-2.85-.76.31-.7.9-.7,1.5,0,8,0,16,0,24a4.9,4.9,0,0,0,3.27,5c3,1.14,3.93,3.61,4,6.53.06,2.36,0,4.73,0,7.09a1.86,1.86,0,0,1-1.4,2.07,37.19,37.19,0,0,0-18.65,12.48c0-3.05,2.23-4.51,4.46-5.81.89-.52,1.72-.86,2-2a2.32,2.32,0,0,1,1.48-1.65c2.06-.54,3.75-1.87,5.75-2.47,1.54-.46,2.76-1.59,4.48-1.77.86-.09,1.06-1.52,1-2.56,0-2.93.24-5.88-.92-8.72a4.21,4.21,0,0,0-2.77-2.49c-2.22-.75-4.64-4.46-4.43-6.72M144,342.29h0c1.14,0,2.29,0,3.43,0,5.5.15,4.63-.47,4-5-.37-2.86-2.75-4.42-4-6.71-1-1.92-2.44-3.64-2.69-5.91-.08-.73.17-1.81-.84-1.84-1.22,0-.9,1.13-1,1.91-.15,1.31.6,3-.8,3.83-2.49,1.44-3.45,4.19-5.53,5.95-.65.55-1.17,6.07-.73,6.78a2.23,2.23,0,0,0,2.16,1C140.06,342.27,142,342.29,144,342.29Zm-7.46-26.89c0-4.16,0-8.25,0-12.34,0-.6.41-1.65-.56-1.68s-.74,1-.77,1.64c0,.3,0,.61,0,.91-.45,3.32,1.14,6.62.07,10C135.05,314.55,135.5,315.21,136.56,315.4Z" transform="translate(-99.29 -289.24)"/><path class="cls-1" d="M261.62,375c0,2.9,0,5.79,0,8.69a4.49,4.49,0,0,0,.86,3.23c1,1.09.21,1.28-.68,1.28-3.51,0-7,0-10.52,0a1.11,1.11,0,0,1-1.27-1c-.34-1.68-1-1.5-2.32-.7a16.94,16.94,0,0,1-15.32,1.67c-4.26-1.53-6.17-4.6-6-9.41a9.35,9.35,0,0,1,6.74-8.53,57.14,57.14,0,0,1,10.33-1.86,8.73,8.73,0,0,0,4.13-1.15,2.17,2.17,0,0,0-.24-4A5.44,5.44,0,0,0,240.9,365a2.12,2.12,0,0,1-2.12,1c-2.9,0-5.8-.08-8.69,0-1.4,0-1.65-.56-1.57-1.79.26-3.73,3.45-7.15,7.87-8.1a42.13,42.13,0,0,1,15.9-.53c6.25,1,9.12,4.39,9.25,10.75.06,2.9,0,5.79,0,8.69Zm-12.89,1.26c-.3-.45.64-1.84-.93-1.54a50.69,50.69,0,0,0-6.16,1.58,2.82,2.82,0,0,0-2.11,3.12c.15,1.64,1.49,2,2.7,2.31C245.81,382.5,248.66,380.09,248.74,376.27Z" transform="translate(-99.29 -289.24)"/><path class="cls-1" d="M198,356.13c4.27-.84,8.53-1.53,12.87-.26a17.09,17.09,0,0,1,12.67,14.85c.54,4.47.54,4.46-4,4.46-5.8,0-11.59,0-17.39,0-2,0-2.54.9-1.64,2.67a5.89,5.89,0,0,0,9.69,1.36,2,2,0,0,1,1.75-.73c3.13,0,6.25,0,9.38,0,1.35,0,1.53.46,1.07,1.64a12.13,12.13,0,0,1-3.26,4.62c-6.2,5.65-18.72,5.83-25.64,1-6.76-4.7-7.8-15.63-4-22.07a20.13,20.13,0,0,1,8.58-7.58Zm7.47,12.32v0c1.45,0,2.89,0,4.34,0,.79,0,1.33-.13,1.18-1.14-.26-1.76-2.73-4-4.68-4.16-3-.26-5.31,1.09-6,3.39-.41,1.32-.26,2,1.31,1.95C202.87,368.4,204.16,368.45,205.46,368.45Z" transform="translate(-99.29 -289.24)"/><path class="cls-1" d="M191.38,314.76l-.82.93-2.76,1.85-.86.51a3.68,3.68,0,0,0-2.63,1l5.36,5.83h0a3.92,3.92,0,0,0,1.31,2c.73,2.08,2.27,3.73,3,5.84.81,2.45.54,4.11-1.08,5.05a4.64,4.64,0,0,1-6-1c-2-2.86-3.78-5.88-5.66-8.83-.65-1-1.35-2-2-3-1.28-2.44-3-4.25-5.95-4.59h0c-.19-.1-.4-.31-.58-.29-2.63.41-2.89-1-2.86-3.19,0-2.43,1-3,3.3-2.95,2.76,0,5.63.45,8.29-.82l.5-.08c2.34-1,3.33-2.61,3.19-5.33a5,5,0,0,0-3.69-4.66c-3.74-1-7.59-.18-11.36-.59l0-5.8c1-.75,2.21-.42,3.32-.44,2.44,0,4.88,0,7.31,0,4.4-.08,8.24,1.17,11.17,4.62a4.68,4.68,0,0,0,1.12,2.15l0,0,.86,2.77h0a24.43,24.43,0,0,1-.91,7.32h0A3.7,3.7,0,0,0,191.38,314.76Z" transform="translate(-99.29 -289.24)"/><path class="cls-1" d="M210.57,324.84c-2.06,0-4.12,0-6.17,0-1.24,0-1.63.63-1.41,1.75.91,4.79,6.2,7.85,10.63,5,1.46-.95,2.79-2.1,4.17-3.18,1.2-.94,2.5-1.3,3.74-.27s.93,2.46.27,3.75c-2.15,4.21-6.12,5.29-10.3,5.69a16,16,0,0,1-8.5-1.26c-6-2.87-8.43-7.86-7.66-15.59.5-5,2.6-9.21,7.42-11.18,5.59-2.28,11.27-2.35,16.12,1.87a11.26,11.26,0,0,1,3.79,10.28c-.27,2.18-2.06,2.75-3.85,2.84-2.73.14-5.48,0-8.22,0Zm-1.3-4.32v0c1.45,0,2.9-.07,4.35,0,1.84.11,2-.82,1.62-2.27-.83-3.33-3-4.88-6.77-4.75-2.48.08-5,2.61-5.41,5.35-.18,1.16.17,1.73,1.41,1.71C206.06,320.5,207.66,320.52,209.27,320.52Z" transform="translate(-99.29 -289.24)"/><path class="cls-2" d="M144,342.29c-2,0-4,0-5.94,0a2.23,2.23,0,0,1-2.16-1c-.44-.72.08-6.23.73-6.78,2.08-1.76,3-4.5,5.53-5.95,1.4-.81.66-2.51.8-3.83.09-.78-.24-2,1-1.91,1,0,.76,1.11.84,1.84.25,2.26,1.65,4,2.69,5.91,1.24,2.29,3.62,3.85,4,6.71.59,4.53,1.46,5.15-4,5-1.14,0-2.28,0-3.43,0Z" transform="translate(-99.29 -289.24)"/><path class="cls-2" d="M136.56,315.4c-1.06-.19-1.5-.85-1.3-1.5,1.08-3.35-.51-6.64-.07-10,0-.3,0-.61,0-.91,0-.67-.08-1.67.77-1.64s.56,1.08.56,1.68C136.58,307.15,136.56,311.24,136.56,315.4Z" transform="translate(-99.29 -289.24)"/></svg>