<?xml version="1.0" encoding="utf-8"?>
<!-- Generator: Adobe Illustrator 21.0.0, SVG Export Plug-In . SVG Version: 6.00 Build 0)  -->
<svg version="1.1" id="Layer_1" xmlns="http://www.w3.org/2000/svg" xmlns:xlink="http://www.w3.org/1999/xlink" x="0px" y="0px"
	 viewBox="0 0 298.8 174.2" style="enable-background:new 0 0 298.8 174.2;" xml:space="preserve">
<style type="text/css">
	.st0{fill:#FE978A;}
	.st1{fill:#FE978B;}
	.st2{fill:#FEDBD7;}
	.st3{opacity:0.8;fill:#FF622D;}
	.st4{opacity:0.8;fill:#BA2400;}
</style>
<title>potSmall</title>
<path class="st0" d="M66,174.3c0-0.1,0-0.1,0-0.2c0.3-0.3,0.8-0.4,1.2-0.4c0.4,0,0.8,0,1.2,0h162.2c0.8,0,1.7-0.2,2.4,0.4
	c0,0.1,0,0.2,0,0.2L66,174.3z"/>
<path class="st1" d="M132.3,0.3V0h17.3v0.2c-0.5,0.3-1,0.5-1.6,0.4c-4.7,0-9.4,0-14.1,0C133.3,0.8,132.7,0.6,132.3,0.3z"/>
<path class="st2" d="M0.3,67.9H0c0-2.8,0-5.6,0-8.4h0.3C0.9,62.3,0.9,65.1,0.3,67.9z"/>
<path class="st3" d="M0.3,67.9c0-2.8,0-5.6,0-8.4h1.4c48.7,0,97.4-0.3,146.1,0.1c49.9,0.3,99.7,0,149.5,0.2c1,0,1.4,0.2,1.4,1.3
	c-0.1,1.9,0,3.8,0,5.8c0.1,0.7-0.4,1.3-1,1.4c-3.3,1.2-6.6,2.5-9.9,3.6c-2.4,0.6-4.8,1.1-7.3,1.3c-5.4,0.9-10.7,1.8-16.1,2.7
	c-0.6,0.1-1.1,0.4-1.5,0.9c-3.3,3.3-6.5,6.6-9.9,9.8c-0.7,0.6-1,1.5-1,2.4c0,21.3,0,42.7,0,64.1c0,0.9-0.2,1.7-0.6,2.5
	c-2.3,4.6-4.5,9.2-6.7,13.8c-0.3,0.7-0.8,1.2-1.5,1.3c-3.4,1.1-6.8,2.2-10.3,3.3H67.6H66l-10.7-3.5c-0.4-0.1-0.7-0.5-0.9-0.9
	c-2.4-4.8-4.8-9.6-7.3-14.5c-0.3-0.6-0.4-1.2-0.3-1.9c0-21.4,0-42.9,0-64.3c0-0.9-0.3-1.7-1-2.3c-3.4-3.3-6.7-6.7-10-10
	c-0.4-0.5-1-0.8-1.6-0.9c-7.2-1.2-14.4-2.3-21.6-3.7c-2.8-0.5-5.4-1.9-8.1-2.8C3,68.9,1.7,68.4,0.3,67.9z"/>
<path class="st4" d="M132.3,0.3h17.2c0.3,0.4,0.7,0.2,1.1,0.2c5.1,0,10.2,0,15.4,0c1,0,1.3,0.3,1.3,1.2c0,3.4,0,6.8,0,10.2
	c0.1,0.5-0.2,1.1-0.8,1.2c0,0,0,0,0,0c-3.3,1.2-6.6,2.5-10,3.8c-0.6,0.1-1.1,0.7-1,1.4c0.1,1.6,0.1,3.1,0,4.7c0,0.9,0.3,1.1,1.2,1.1
	c5.3,0,10.6,0,15.8,0c3.7,0,7.4,0.7,11.1,1.1c6.1,0.7,12.1,1.6,18.2,2.2c4.3,0.4,8.3,1.8,12.3,3c15,4.3,29.9,8.7,44.8,13.1
	c0.8,0.2,1.5,0.7,2,1.4c2.3,3.5,4.7,7.1,7,10.6c0.2,0.3,0.6,0.5,0.3,0.9s-0.6,0.2-1,0.3s-0.5,0-0.7,0H32.9c-0.6,0-1.5,0.3-1.9-0.4
	s0.3-1.3,0.7-1.8c2.2-3.3,4.4-6.6,6.6-9.9c0.3-0.6,0.9-1,1.6-1.2C57.6,38.4,75.3,33.2,93,28.1c3.2-0.9,6.6-0.9,9.8-1.4
	c6.7-0.9,13.5-1.7,20.2-2.5c0.8-0.1,1.5-0.1,2.3-0.1c5.8,0,11.5,0,17.3,0c1,0,1.3-0.3,1.3-1.3c-0.1-1.5-0.1-3,0-4.6
	c0.1-0.6-0.3-1.2-0.9-1.3c-3.3-1.2-6.5-2.4-9.8-3.6c-0.7-0.1-1.2-0.8-1.1-1.5c0.1-3.4,0-6.9,0-10.3C132,1.1,132.1,0.7,132.3,0.3z"/>
</svg>
