<?xml version="1.0" encoding="utf-8"?>
<!-- Generator: Adobe Illustrator 21.0.0, SVG Export Plug-In . SVG Version: 6.00 Build 0)  -->
<svg version="1.1" id="Layer_1" xmlns="http://www.w3.org/2000/svg" xmlns:xlink="http://www.w3.org/1999/xlink" x="0px" y="0px"
	 viewBox="0 0 386 256" style="enable-background:new 0 0 386 256;" xml:space="preserve">
<style type="text/css">
	.st0{opacity:0.4;fill:#E6E7E8;}
	.st1{opacity:0.4;fill:#FFEC9D;}
	.st2{opacity:0.9;fill:#F26A42;}
	.st3{opacity:0.9;fill:#FABB9F;}
	.st4{opacity:0.4;fill:#CE3045;}
	.st5{opacity:0.4;fill:#F5846F;}
	.st6{fill:#FDB84A;}
	.st7{fill:#F68849;}
	.st8{fill:#E64925;}
	.st9{opacity:0.4;}
	.st10{fill:#F5855A;}
	.st11{opacity:0.4;fill:#F26A42;}
	.st12{opacity:0.4;fill:#FABB9F;}
	.st13{fill:#F26A42;}
	.st14{fill:#FABB9F;}
	.st15{opacity:0.4;fill:#FBB065;}
	.st16{opacity:0.4;fill:#FCD0BD;}
	.st17{opacity:0.4;fill:#FDDED0;}
	.st18{opacity:0.4;fill:#FBBCA1;}
	.st19{fill:#F47B48;}
	.st20{opacity:0.4;fill:#BE3626;}
	.st21{opacity:0.4;fill:#F47B48;}
	.st22{opacity:0.4;fill:#F68B22;}
</style>
<title>welcomeDesktop</title>
<rect y="0" class="st0" width="386" height="256"/>
<path class="st1" d="M0,90.6c50.9-31,69.9-26,69.9-26c43.5,29,41,39,78.5,14s69.4-11.1,70.5-10c22,23.5,42-10,57,5s28.5-24.5,61-1
	s49.1-5,49.1-5V256H0L0,90.6z"/>
<circle class="st2" cx="356.5" cy="62.9" r="8.5"/>
<circle class="st3" cx="356.5" cy="62.9" r="5"/>
<circle class="st4" cx="28.4" cy="76.4" r="8.5"/>
<circle class="st5" cx="28.4" cy="76.4" r="5"/>
<path class="st6" d="M49.8,157.9c0-4.9,0-9.7,0-14.6c0-14.1,0-28.3,0-42.4c0-0.5,0-1-0.1-1.5C50.2,85,62.6,73.8,74.2,71.9
	c14.3-2.4,25.9,4.4,32.3,15.7c2.3,4.3,3.4,9.1,3.3,14c0,18.3,0,36.6,0,54.8c0,2.9-1.5,4.4-4.4,4.4c-4.9,0-9.8,0-14.6,0
	c-1,0-1.2,0.3-1.2,1.2c0,9.2,0,18.4,0,27.6c0,2-0.4,3.9-1.4,5.6c-2.4,3.7-6.9,5.5-11.2,4.3c-4.1-1-7-4.7-7.1-9c0-9.4,0-18.9,0-28.3
	c0-1.1-0.3-1.4-1.4-1.4c-4.9,0-9.8,0-14.8,0C51.9,160.9,50.3,159.7,49.8,157.9z M102.5,125.4c0-8.1,0-16.1,0-24.2
	c0-2.3-0.3-4.5-0.9-6.7c-3.9-12-16.8-18.6-28.8-14.7c-9.3,3-15.6,11.5-15.8,21.3c0,16.9,0,33.8,0,50.7c0,1.1,0.3,1.3,1.3,1.3
	c14.3,0,28.6,0,42.9,0c1.1,0,1.3-0.3,1.3-1.4C102.5,143.1,102.5,134.2,102.5,125.4L102.5,125.4z M82.2,175.9c0-4.7,0-9.4,0-14
	c0-0.9-0.2-1.2-1.1-1.2c-1,0.1-2,0.1-3,0c-1-0.1-1.2,0.3-1.2,1.2c0,8.6,0,17.1,0,25.7c0,0.8,0,1.7,0,2.5c-0.1,1.3,0.9,2.4,2.1,2.5
	c0.1,0,0.1,0,0.2,0c1.9,0.1,2.9-0.8,2.9-2.7C82.2,185.3,82.2,180.6,82.2,175.9L82.2,175.9z"/>
<path class="st7" d="M91.6,122.9c0,5.1,0,10.2,0,15.4c0.1,1.3-0.6,2.6-1.7,3.2c-1.3,0.7-2.8,0.6-4-0.2c-1.1-0.8-1.6-2.1-1.5-3.4
	c0-7.5,0-15,0-22.6c0-2.5,0-5,0-7.6c0-2.4,1.4-3.8,3.5-3.8s3.7,1.4,3.7,3.8C91.6,112.8,91.6,117.9,91.6,122.9L91.6,122.9z"/>
<path class="st8" d="M74.6,123c0,5,0,10.1,0,15.1c0,2.6-1.6,4-4.1,3.8c-1.5-0.1-2.7-1.2-2.9-2.6c-0.1-0.7-0.2-1.4-0.2-2.2
	c0-9.5,0-19,0-28.6c0-0.5,0-1,0.1-1.5c0.3-1.9,2.2-3.2,4.1-2.9c1.7,0.3,2.9,1.7,3,3.4c0,4.1,0,8.2,0,12.4
	C74.6,120.9,74.6,121.9,74.6,123z"/>
<g id="PathID_11" class="st9">
	<path class="st10" d="M351.4,127.3c3.5,3.7,4.8,8.8,3.7,13.8c3,0.8,5.5,2.7,7.2,5.3c1.8,2.6,2.8,5.6,2.8,8.8c0,2.8-0.8,5.6-2.4,8
		c-1.6,2.4-3.9,4.3-6.6,5.5L344.2,206c-0.2,1.1-1.1,1.8-2.2,1.7c-1.1,0.1-2.1-0.6-2.3-1.7l-11.9-37.2c-2.8-1.1-5.2-2.9-6.9-5.4
		c-1.8-2.4-2.7-5.3-2.7-8.3c0-2.8,0.8-5.5,2.3-7.8c1.5-2.3,3.5-4.2,6-5.4c-0.3-1.4-0.4-2.7-0.4-4.1c-0.1-3.9,1.4-7.7,4.2-10.5
		c0.8-0.9,1.8-1.6,2.8-2.3c2.3-1.4,4.9-2.1,7.5-2.1c2.7,0,5.4,0.7,7.7,2.1C349.4,125.7,350.4,126.5,351.4,127.3 M350.2,144.9
		c-2.7,0-5.2,1-7.1,2.9c-1.8,2-2.9,4.6-2.9,7.3l0.1,1.9l0.6,1.9c0.6,1.2,1.3,2.4,2.2,3.4c1,0.9,2.2,1.6,3.5,2.1h7.3
		c3.8-1.5,6.3-5.2,6.4-9.3c0-2.4-0.8-4.8-2.4-6.7c-1.7-1.8-3.9-3-6.3-3.3L350.2,144.9 M350.7,137.8c0.1-2.7-1-5.3-2.9-7.2
		c-1.9-2-4.5-3.1-7.2-3c-2.7,0-5.2,1.1-7,3c-2,1.9-3,4.5-3,7.2c0,1.5,0.4,3,1.1,4.3c1,2.5,3.1,4.2,6.2,5l2.1-2.5
		c2.7-2.7,6.4-4.2,10.2-4.2C350.5,139.5,350.7,138.6,350.7,137.8 M328.5,146.1c-3.8,2-5.8,5-5.8,9c0,2,0.7,4,1.9,5.6
		c1.2,1.7,2.9,3,4.8,3.7v-0.1h7.2l1.5-1c-1.7-2.4-2.6-5.3-2.6-8.3c0-1.2,0.1-2.3,0.4-3.5C333.1,150.5,330.5,148.6,328.5,146.1"/>
</g>
<circle class="st11" cx="212.5" cy="142.9" r="8.5"/>
<circle class="st12" cx="212.5" cy="142.9" r="5"/>
<circle class="st11" cx="49.8" cy="182.3" r="8.5"/>
<circle class="st12" cx="49.8" cy="182.3" r="5"/>
<circle class="st11" cx="265.9" cy="54.4" r="8.5"/>
<circle class="st12" cx="265.9" cy="54.4" r="5"/>
<circle class="st13" cx="341.6" cy="216.1" r="8.5"/>
<circle class="st14" cx="341.6" cy="216.1" r="5"/>
<g id="PathID_13" class="st9">
	<path class="st8" d="M123.6,210.8l2.3,0l-0.1,0.5l-0.8-0.1c-0.9,0.1-1.7,0.3-2.6,0.6c-1.2,0.6-2.1,1.6-2.7,2.9
		c-0.9,1.8-1.5,3.2-2,4l-0.2,0.3l-0.6-0.9c-0.4-0.7-0.7-1.1-1.1-1.1h-0.6c0.4-0.2,0.8-0.3,1.3-0.5c0.5-0.3,1-0.6,1.5-1.1l1.7-2.1
		C120.6,211.9,122.1,211.1,123.6,210.8 M108.2,220c1-0.6,2-1.3,2.8-2.2c0.3-0.5,0.8-0.9,1.4-1l0.8-0.1c0-0.2,0.1-0.2,0.4-0.1
		l0.6,0.3l1.2,0.3h0.5c0.3,0,0.7,0.4,1.1,1.1l1,1.4c0,0.1,0,0.3-0.1,0.5v0.1c0,0.3,0,0.7-0.1,1c-0.1,0.8-1.1,2-3,3.5l-5.4,4
		c-1.8,1.3-3.8,2.3-5.9,3c-2.3,0.8-4.8,1.3-7.2,1.6c-1.7,0.1-3.4,0.5-5.1,1c-0.7,0.2-1.3,0.6-1.7,1.2c-0.2,0.3-0.3,0.6-0.3,1
		c0,0.3-0.2,0.5-0.4,0.5c-0.4,0-0.6-0.3-0.6-1c0-1.1,0.2-2.2,0.7-3.2c0.5-1.3,2-2.6,4.6-3.9c1.4-0.8,2.9-1.5,4.4-1.9
		c1.8-0.2,3.5-0.9,4.8-2.1l1-1.3c0.3-0.5,0.6-0.9,1-1.2C105.8,221.5,107,220.7,108.2,220 M81.9,233l-1.3,0.2c-0.1,0-0.2,0.1-0.3,0.1
		l-0.4,0.3c0.2-0.2,0.4-0.3,0.6-0.3l1.3-0.1c0.3,0.1,0.5,0.4,0.7,0.9l0.3,0.7l0.2,0.5l0,0l0.1-0.2c0-0.2-0.1-0.4-0.1-0.5l-0.3-0.7
		C82.5,233.5,82.3,233.1,81.9,233 M78.8,232.1v0.2V232.1L78.8,232.1L78.8,232.1c-0.1-0.3-0.1-0.3,0-0.2h0.1c0-0.6,0.1-1.2,0.4-1.8
		c0.3-0.6,0.8-1.2,1.4-1.5c0.2,0,0.7-0.8,1.4-2.4c0.8-1.6,1.4-2.4,2-2.4c0.8-0.3,1.5-0.9,1.9-1.7c0.3-0.6,0.8-1.2,1.3-1.7
		c0.5-0.6,0.8-1.2,1.1-2l1.9-3.9c1.9-3.8,3.4-5.9,4.6-6.4c1-0.4,2.1-0.6,3.2-0.6c0.7,0.1,1,0.3,0.9,0.7c0,0.2-0.2,0.3-0.5,0.3
		c-0.3,0-0.7,0.1-1,0.3c-0.6,0.4-1,1-1.2,1.7c-0.6,1.6-1,3.3-1.1,5.1c-0.3,2.4-0.9,4.8-1.7,7.1c-0.8,2.1-1.8,4.1-3.2,5.8l-4.2,5.7
		c-1.6,2.1-2.8,2.9-3.6,2.6l-0.3-0.2c0.3,0,0.6-0.1,0.8-0.3c0.6-0.3,0.8-0.5,0.8-0.7l-0.3-1.8c0-0.2-0.1-0.5-0.2-0.7
		c0.1,0.3,0.1,0.6,0.1,0.8c0,0.5,0,1,0.1,1.5c0,0.2-0.2,0.4-0.7,0.6c-0.5,0.2-1,0.3-1.6,0.3l-0.1,0.1c-1,0.8-2.1,1.5-3.2,2.1
		c-1.1,0.6-1.9,1.6-2.4,2.7c-0.3,0.8-0.2,1.8,0.3,2.5c0.2,0.3,0.4,0.6,0.7,0.8l-0.8,0.5c-0.5-0.5-0.9-1.1-1.1-1.8
		c-0.5-1.2-0.2-2.7,0.8-3.5c0.8-0.7,1.5-1.5,2.3-2.3c0.5-0.6,0.9-1.3,1.2-2l0.4-1.4l0.1-0.1h-0.1c-0.2-0.2-0.3-0.4-0.4-0.7l-0.3-1.3
		c0.4,0.1,0.9,0,1.2-0.2c0.3-0.2,0.6-0.4,0.8-0.8c0.2-0.3,0.4-0.3,0.6,0l0.7,1c0.3,0.2,0.6,0.3,1,0.3c0.1,0.1,0.2,0.2,0.2,0.3
		c0-0.1,0-0.3-0.1-0.3c-0.4-0.1-0.7-0.3-1-0.6l-0.9-0.9c-0.2-0.2-0.3-0.2-0.4,0c-0.2,0.4-0.5,0.7-0.8,0.8
		C79.6,232,79.2,232.1,78.8,232.1L78.8,232.1"/>
</g>
<path class="st15" d="M249.8,184.7h50.3c0.4,0,0.5,0.1,0.5,0.5c0,1.8,0,3.6,0,5.5c0,0.4-0.1,0.5-0.5,0.5h-50.3V184.7z"/>
<path class="st16" d="M289.2,134.4L289.2,134.4c-0.3,0.3-0.7,0.3-1.1,0.1c0,0,0,0,0-0.1L289.2,134.4z"/>
<path class="st17" d="M310.2,136.6L310.2,136.6c-0.2-0.2-0.2-0.5-0.1-0.8c0,0,0.1,0,0.1,0V136.6z"/>
<path class="st18" d="M310.2,135.8L310.2,135.8c-0.2-0.2-0.2-0.5-0.1-0.7h0.1L310.2,135.8z"/>
<path class="st19" d="M255.7,199.8c-0.1-0.9-0.3-1.7-0.4-2.6c-0.2-1.1-0.3-2.3-0.5-3.5c0-0.3,0-0.4,0.3-0.4h39.9
	c0.5,0,0.5,0,0.4,0.5c-0.5,3-1,6.1-1.4,9.1s-0.9,6-1.4,9c-0.5,3-0.9,6-1.4,9c-0.4,2.7-0.8,5.3-1.2,7.9c0,0.2-0.1,0.3-0.4,0.3
	l-7.3-0.1h-3.4l-9.7-0.1l-8.9-0.1H260c-0.8-0.1-0.8-0.1-0.9-0.8s-0.2-1.7-0.3-2.5c0-0.3,0-0.4,0.3-0.4c1.3,0.1,2.7-0.1,4-0.5
	c2-0.7,3.8-1.9,5.1-3.6c1.9-2.3,3-5.2,3.1-8.1c0.3-3.1-0.5-6.2-2.2-8.8c-1.2-2.1-3.1-3.7-5.4-4.7c-2.5-1.1-5.4-0.9-7.9,0.4
	L255.7,199.8z"/>
<path class="st20" d="M275.2,180.2h-19.3c-0.5,0-0.5,0-0.4-0.5c1.6-6.7,3.2-13.3,4.8-19.9c0.1-0.3,0.2-0.4,0.5-0.4h30
	c0.3,0,0.4,0.1,0.5,0.4c1,5.3,2,10.7,3,16.1c0.2,1.3,0.5,2.5,0.7,3.8c0.1,0.5,0.1,0.5-0.4,0.5L275.2,180.2z"/>
<path class="st21" d="M310.1,135.1v0.7v0.8c0,0.8,0,1.5-0.1,2.3c0,0.2,0,0.4-0.3,0.3c-1.8-0.1-3.6-0.1-5.4-0.2l-8.8-0.2
	c-1.5,0-3-0.1-4.6-0.1c-0.3,0-0.4,0.1-0.5,0.4c-2.4,5.8-4.9,11.5-7.3,17.3c-0.1,0.3-0.4,0.5-0.8,0.5c-1.5-0.1-2.9-0.1-4.4-0.2l0.9-2
	l9-20l0.1-0.2h1.1l6.7,0.2l10.6,0.3L310.1,135.1z"/>
<path class="st22" d="M265.5,212.5c0,2.6-1.3,5.1-3.4,6.5c-1.1,0.8-2.5,1.1-3.8,0.9c-0.3,0-0.4-0.1-0.4-0.4c-0.2-1.3-0.3-2.7-0.5-4
	l-0.9-7.3c-0.1-0.9-0.2-1.9-0.3-2.8c0-0.3,0.1-0.4,0.3-0.5c2.6-1.1,5.5-0.2,7.2,2C264.9,208.6,265.5,210.5,265.5,212.5z"/>
</svg>
