<?xml version="1.0" encoding="utf-8"?>
<!-- Generator: Adobe Illustrator 21.0.0, SVG Export Plug-In . SVG Version: 6.00 Build 0)  -->
<svg version="1.1" id="Layer_1" xmlns="http://www.w3.org/2000/svg" xmlns:xlink="http://www.w3.org/1999/xlink" x="0px" y="0px"
	 viewBox="0 0 148.7 256" style="enable-background:new 0 0 148.7 256;" xml:space="preserve">
<style type="text/css">
	.st0{opacity:0.4;fill:#FFEC9D;}
	.st1{fill:#FDB84A;}
	.st2{fill:#F68849;}
	.st3{opacity:0.4;fill:#F26A42;}
	.st4{opacity:0.4;fill:#FABB9F;}
	.st5{fill:#F26A42;}
	.st6{fill:#FABB9F;}
	.st7{opacity:0.4;}
	.st8{fill:#E64925;}
</style>
<title>welcomeMobile</title>
<rect y="0" class="st0" width="148.7" height="256"/>
<path class="st0" d="M148.7,69.7V256H0V92.7c5.1-0.6,10.8-3.1,18.6-7.8c1.9-1.2,4-2.5,6.2-3.9c1.2-0.8,2.4-1.6,3.7-2.4
	c37.5-25,69.4-11.2,70.5-10C117.6,88.4,134.8,67.6,148.7,69.7z"/>
<path class="st1" d="M24.8,81c-0.2-0.3-0.3-0.7-0.5-1C19.2,70.8,10.6,64.6,0,63.8v7.3c8,0.8,15.3,5.9,18.6,13.7
	c0.3,0.6,0.5,1.3,0.7,2c0.6,2.2,1,4.5,1,6.7v24.2c0,8.8,0,17.6,0.1,26.3c0,1-0.2,1.4-1.3,1.4c-6.3,0-12.7,0-19,0v8.3
	c0,0.2,0,0.4,0,0.6v14c0,4.1,0,8.1,0,12.2v11.4c2.4-0.6,4.6-2.1,6-4.3c1-1.7,1.5-3.6,1.4-5.6v-27.6c0-0.9,0.2-1.2,1.2-1.2h14.6
	c2.8,0,4.4-1.5,4.4-4.4V94C27.7,89.5,26.8,85,24.8,81z"/>
<path class="st2" d="M9.4,115.3c0,5.1,0,10.2,0,15.4c0.1,1.3-0.6,2.6-1.7,3.2c-1.3,0.7-2.8,0.6-4-0.2c-1.1-0.8-1.6-2.1-1.5-3.4
	c0-7.5,0-15,0-22.6c0-2.5,0-5,0-7.6c0-2.4,1.4-3.8,3.5-3.8s3.7,1.4,3.7,3.8C9.4,105.1,9.4,110.2,9.4,115.3L9.4,115.3z"/>
<circle class="st3" cx="135" cy="101.8" r="8.5"/>
<circle class="st4" cx="109.3" cy="128" r="5"/>
<circle class="st5" cx="129.9" cy="74.4" r="8.5"/>
<circle class="st6" cx="129.9" cy="74.4" r="5"/>
<g id="PathID_13" class="st7">
	<path class="st8" d="M141.5,199.1l2.3,0l-0.1,0.5l-0.8-0.1c-0.9,0.1-1.7,0.3-2.6,0.6c-1.2,0.6-2.1,1.6-2.7,2.9
		c-0.9,1.8-1.5,3.2-2,4l-0.2,0.3l-0.6-0.9c-0.4-0.7-0.7-1.1-1.1-1.1h-0.6c0.4-0.2,0.8-0.3,1.3-0.5c0.5-0.3,1-0.6,1.5-1.1l1.7-2.1
		C138.6,200.2,140,199.3,141.5,199.1 M126.1,208.2c1-0.6,2-1.3,2.8-2.2c0.3-0.5,0.8-0.9,1.4-1l0.8-0.1c0-0.2,0.1-0.2,0.4-0.1
		l0.6,0.3l1.2,0.3h0.5c0.3,0,0.7,0.4,1.1,1.1l1,1.4c0,0.1,0,0.3-0.1,0.5v0.1c0,0.3,0,0.7-0.1,1c-0.1,0.8-1.1,2-3,3.5l-5.4,4
		c-1.8,1.3-3.8,2.3-5.9,3c-2.3,0.8-4.8,1.3-7.2,1.6c-1.7,0.1-3.4,0.5-5.1,1c-0.7,0.2-1.3,0.6-1.7,1.2c-0.2,0.3-0.3,0.6-0.3,1
		c0,0.3-0.2,0.5-0.4,0.5c-0.4,0-0.6-0.3-0.6-1c0-1.1,0.2-2.2,0.7-3.2c0.5-1.3,2-2.6,4.6-3.9c1.4-0.8,2.9-1.5,4.4-1.9
		c1.8-0.2,3.5-0.9,4.8-2.1l1-1.3c0.3-0.5,0.6-0.9,1-1.2C123.7,209.8,124.9,209,126.1,208.2 M99.9,221.2l-1.3,0.2
		c-0.1,0-0.2,0.1-0.3,0.1l-0.4,0.3c0.2-0.2,0.4-0.3,0.6-0.3l1.3-0.1c0.3,0.1,0.5,0.4,0.7,0.9l0.3,0.7l0.2,0.5l0,0l0.1-0.2
		c0-0.2-0.1-0.4-0.1-0.5l-0.3-0.7C100.5,221.7,100.2,221.4,99.9,221.2 M96.7,220.3v0.2V220.3L96.7,220.3L96.7,220.3
		c-0.1-0.3-0.1-0.3,0-0.2h0.1c0-0.6,0.1-1.2,0.4-1.8c0.3-0.6,0.8-1.2,1.4-1.5c0.2,0,0.7-0.8,1.4-2.4c0.8-1.6,1.4-2.4,2-2.4
		c0.8-0.3,1.5-0.9,1.9-1.7c0.3-0.6,0.8-1.2,1.3-1.7c0.5-0.6,0.8-1.2,1.1-2l1.9-3.9c1.9-3.8,3.4-5.9,4.6-6.4c1-0.4,2.1-0.6,3.2-0.6
		c0.7,0.1,1,0.3,0.9,0.7c0,0.2-0.2,0.3-0.5,0.3c-0.3,0-0.7,0.1-1,0.3c-0.6,0.4-1,1-1.2,1.7c-0.6,1.6-1,3.3-1.1,5.1
		c-0.3,2.4-0.9,4.8-1.7,7.1c-0.8,2.1-1.8,4.1-3.2,5.8l-4.2,5.7c-1.6,2.1-2.8,2.9-3.6,2.6l-0.3-0.2c0.3,0,0.6-0.1,0.8-0.3
		c0.6-0.3,0.8-0.5,0.8-0.7l-0.3-1.8c0-0.2-0.1-0.5-0.2-0.7c0.1,0.3,0.1,0.6,0.1,0.8c0,0.5,0,1,0.1,1.5c0,0.2-0.2,0.4-0.7,0.6
		c-0.5,0.2-1,0.3-1.6,0.3l-0.1,0.1c-1,0.8-2.1,1.5-3.2,2.1c-1.1,0.6-1.9,1.6-2.4,2.7c-0.3,0.8-0.2,1.8,0.3,2.5
		c0.2,0.3,0.4,0.6,0.7,0.8l-0.8,0.5c-0.5-0.5-0.9-1.1-1.1-1.8c-0.5-1.2-0.2-2.7,0.8-3.5c0.8-0.7,1.5-1.5,2.3-2.3
		c0.5-0.6,0.9-1.3,1.2-2l0.4-1.4l0.1-0.1h-0.1c-0.2-0.2-0.3-0.4-0.4-0.7l-0.3-1.3c0.4,0.1,0.9,0,1.2-0.2c0.3-0.2,0.6-0.4,0.8-0.8
		c0.2-0.3,0.4-0.3,0.6,0l0.7,1c0.3,0.2,0.6,0.3,1,0.3c0.1,0.1,0.2,0.2,0.2,0.3c0-0.1,0-0.3-0.1-0.3c-0.4-0.1-0.7-0.3-1-0.6l-0.9-0.9
		c-0.2-0.2-0.3-0.2-0.4,0c-0.2,0.4-0.5,0.7-0.8,0.8C97.6,220.3,97.1,220.4,96.7,220.3L96.7,220.3"/>
</g>
</svg>
